<?xml version="1.0" encoding="utf-8"?>
<!-- Generator: Adobe Illustrator 25.0.0, SVG Export Plug-In . SVG Version: 6.00 Build 0)  -->
<svg version="1.1" id="Layer_1" xmlns="http://www.w3.org/2000/svg" xmlns:xlink="http://www.w3.org/1999/xlink" x="0px" y="0px"
	 viewBox="0 0 273.4969 273.4969" style="enable-background:new 0 0 273.4969 273.4969;" xml:space="preserve">
<style type="text/css">
	.st0{fill:none;}
	.st1{clip-path:url(#SVGID_2_);}
	.st2{fill:#333333;stroke:#1A1A1A;stroke-width:1.5;stroke-miterlimit:10;}
	.st3{fill:#FFF6EE;}
	.st4{fill:#F4ABC3;stroke:#F94B8A;stroke-width:2;stroke-miterlimit:10;}
	.st5{fill:#F9E484;stroke:#F9ECB7;stroke-width:1.5;stroke-miterlimit:10;}
	.st6{fill:#FFFFFF;stroke:#E5397B;stroke-width:2;stroke-miterlimit:10;}
	.st7{fill:#E5397B;stroke:#E5397B;stroke-miterlimit:10;}
	.st8{fill:none;stroke:#E5397B;stroke-width:2;stroke-miterlimit:10;}
	.st9{fill:#F4ABC3;stroke:#F94B8A;stroke-width:1.5;stroke-miterlimit:10;}
	.st10{fill:none;stroke:#F94B8A;stroke-width:1.5;stroke-miterlimit:10;}
	.st11{fill:none;stroke:#000000;stroke-width:1.5;stroke-miterlimit:10;}
</style>
<circle class="st0" cx="138.6912" cy="136.8057" r="123.0573"/>
<g>
	<defs>
		<circle id="SVGID_1_" cx="138.6912" cy="136.8057" r="123.0573"/>
	</defs>
	<use xlink:href="#SVGID_1_"  style="overflow:visible;fill:#F4ABC3;"/>
	<clipPath id="SVGID_2_">
		<use xlink:href="#SVGID_1_"  style="overflow:visible;"/>
	</clipPath>
	<g class="st1">
		<path class="st2" d="M120.7931,89.0704c0,0-4.5309-6.1785-6.5904,0c-2.0595,6.1785-2.0595,6.1785-2.0595,6.1785
			s-1.4032,6.9259,3.4174,10.9801c0,0,10.7931,3.2802,12.0288-0.2458c1.2357-3.526,2.6773-15.0592,0-16.7068
			C124.9121,87.6288,124.5002,85.1574,120.7931,89.0704z"/>
		<path class="st2" d="M127.5894,89.2764c0,0,8.8558-28.0091,14.6224-20.1831s-2.4714,15.2403-1.6476,20.1831
			c0.8238,4.9428,10.989,8.8558,12.7027,11.7391c1.7138,2.8833,0.7785,11.813-3.8407,9.3533c0,0-14.5667-2.5365-21.8368-4.3857
			C127.5894,105.9832,132.5936,94.3081,127.5894,89.2764z"/>
		<path class="st2" d="M115.5606,86.7918c0,0-6.0369-4.5178-9.8759-13.1676s-13.7245-16.476-11.0472-3.5011
			s4.3249,18.5355-1.6476,24.302c-5.9725,5.7666-5.9725,5.7666-5.9725,5.7666s-1.6476,2.8833,6.1785,3.5011
			c7.8261,0.6178,12.4888,2.6843,12.4888,2.6843s6.376,1.0656,9.8759-0.1482C115.5606,106.229,109.0395,101.6755,115.5606,86.7918z"
			/>
		<path class="st3" d="M137.908,258.0642c0,0-4.91-17.1412-0.7504-44.4097c4.1596-27.2685,33.0586-41.2923,33.0586-41.2923
			l-8.3224-35.0242c0,0-12.1768-21.7298-18.2856-25.0519c-6.1088-3.3221-11.7935-5.6445-24.2718-3.1822
			s-31.2592,14.8881-31.2592,14.8881c-18.1131,17.5628,0,71.6376,0,71.6376c2.2213,23.1089-2.4884,54.6633-5.2614,59.7472"/>
		<path class="st4" d="M111.001,107.4055c0,0,7.7464-3.2004,14.3215,0c0,0,0.7769,31.1166-35.7749,44.8289
			C89.5477,152.2344,79.6937,123.3827,111.001,107.4055z"/>
		<path class="st5" d="M248.0587,152.2344c0,0,3.2876,5.0516-15.8899,7.7382c-19.1775,2.6866-43.2864,4.8783-52.0533,8.1658
			c-8.7669,3.2876-12.8874,6.0272-16.5804,2.7396c-3.693-3.2876,0-10.9586,0-10.9586s32.6169-7.0016,41.5483-7.6851
			C214.0147,151.551,237.0493,150.2115,248.0587,152.2344z"/>
		<circle class="st6" cx="122.3679" cy="148.4874" r="13.8653"/>
		<circle class="st7" cx="122.3679" cy="150.6313" r="6.8073"/>
		<line class="st8" x1="108.9733" y1="152.2344" x2="99.8152" y2="164.9504"/>
		<line class="st8" x1="108.4555" y1="150.0064" x2="95.1535" y2="157.6231"/>
		<g>
			<g>
				<path class="st9" d="M165.0477,174.615c0,0,2.7017,10.1982,8.3185,15.3044c0,0,0.992,11.483-29.7581,5.1032
					C143.6082,195.0226,159.1684,175.7918,165.0477,174.615z"/>
				<path class="st10" d="M158.489,179.2023c0,0,5.0006,14.3089,9.9223,16.419"/>
				<path class="st10" d="M149.5484,187.4118c0,0-1.0986,2.2717,2.9734,9.0855"/>
				<path class="st11" d="M156.5939,203.3112"/>
			</g>
			<path class="st9" d="M111.001,107.4055c0,0-50.2499,22.8408,0,86.7952c0,0-9.1363,9.1363-27.409,0s-27.409-9.1363-41.1135-9.1363
				h-4.5682c0,0,4.5682-13.7045,9.1363-27.409C51.6148,143.9509,79.0238,98.2692,111.001,107.4055z"/>
			<path class="st9" d="M125.3226,107.4055c0,0,15.9284,37.0811,36.5712,29.9325
				C161.8938,137.338,161.2963,98.919,125.3226,107.4055z"/>
			<path class="st10" d="M121.4852,106.2075c0,0-23.268,7.7787-31.9375,46.0269"/>
			<path class="st10" d="M125.3226,107.4055c0,0-14.1061,23.3952-33.0003,43.7223"/>
			<path class="st10" d="M126.1045,109.1039c0,0,22.5075,23.2733,30.3581,29.1493"/>
			<path class="st10" d="M86.8727,114.5568c0,0-27.6777,38.388-34.2761,70.6796"/>
			<path class="st10" d="M74.4557,146.0061c0,0-6.602,19.7181-2.9464,42.9569"/>
			<path class="st10" d="M133.9805,106.1814c0,0,24.8205,18.3958,25.7436,32.0717"/>
		</g>
		<path class="st5" d="M153.2669,152.2344c0,0,5.7422-4.9173,10.2682-10.9445c0,0,64.7981,3.8355,75.2088,2.7396
			c10.4106-1.0959,18.6296,2.1636,9.3148,8.2049c-9.3148,6.0413-32.0981,1.1099-45.3632,2.7537
			c-13.2652,1.6438-30.536,5.4793-39.1603,4.9314C154.9107,159.3716,156.0066,160.9872,153.2669,152.2344z"/>
	</g>
	<use xlink:href="#SVGID_1_"  style="overflow:visible;fill:none;stroke:#FFFFFF;stroke-width:5;stroke-miterlimit:10;"/>
</g>
</svg>
